<?xml version="1.0" encoding="UTF-8"?>
<svg version="1.1" xmlns="http://www.w3.org/2000/svg" width="600" height="300">
<path d="M0 0 C99 0 198 0 300 0 C300 99 300 198 300 300 C201 300 102 300 0 300 C0 201 0 102 0 0 Z " fill="#FEFEFE" transform="translate(150,0)"/>
<path d="M0 0 C3.78861388 1.72496141 5.45742349 3.68694576 8 7 C10.71490898 9.86166082 13.53960555 12.47446212 16.5625 15 C19.44227883 17.43195146 21.69657391 20.00554608 24 23 C27.24470966 26.42009937 30.69907225 29.47764713 34.29296875 32.515625 C36.64744011 34.5629914 38.82592878 36.76381245 41 39 C41.66 39.66 42.32 40.32 43 41 C42.82185697 43.6944134 42.16384217 44.82553843 40.3125 46.796875 C39.1678125 47.76367188 39.1678125 47.76367188 38 48.75 C32.94918294 53.13565881 28.0523102 57.65870488 23.1875 62.25 C22.45853516 62.93545898 21.72957031 63.62091797 20.97851562 64.32714844 C17.26127082 67.83066021 13.58725825 71.36340813 10 75 C11.38754807 79.5410664 13.30995742 81.12996688 17 84 C18.77420616 85.92442499 20.46937731 87.90117166 22.15625 89.90234375 C24.3367646 92.38314109 26.64928138 94.67878831 29 97 C30.33019645 98.32865727 31.65955303 99.65815567 32.98828125 100.98828125 C33.69404297 101.69404297 34.39980469 102.39980469 35.12695312 103.12695312 C38.41796875 106.41796875 41.70898438 109.70898438 45 113 C41.53608927 117.10545771 38.03451334 121.12036154 34.25 124.9375 C33.49203125 125.70964844 32.7340625 126.48179687 31.953125 127.27734375 C30 129 30 129 28 129 C27.67 129.99 27.34 130.98 27 132 C25.44458008 133.52978516 25.44458008 133.52978516 23.45703125 135.1640625 C18.16541085 139.65184763 13.38929047 144.59133709 8.56054688 149.56640625 C7.88443359 150.25347656 7.20832031 150.94054687 6.51171875 151.6484375 C5.90803467 152.26895996 5.30435059 152.88948242 4.68237305 153.52880859 C3 155 3 155 0 156 C-10.6272373 145.54571955 -10.6272373 145.54571955 -14.4375 141.0625 C-17.93307598 136.96046264 -21.75085377 133.22137899 -25.58203125 129.4375 C-29.07377439 125.97220946 -32.36948999 122.39748533 -35.56640625 118.65625 C-38.29226496 115.50702904 -41.31801282 112.66006205 -44.30859375 109.765625 C-45.13488281 108.95609375 -45.96117187 108.1465625 -46.8125 107.3125 C-47.60269531 106.54550781 -48.39289063 105.77851563 -49.20703125 104.98828125 C-51 103 -51 103 -51 101 C-51.54140625 100.79632813 -52.0828125 100.59265625 -52.640625 100.3828125 C-55.94480786 98.44625499 -58.23578215 95.71053896 -60.75 92.875 C-64.90562081 88.24678669 -69.13126272 83.84044519 -73.76953125 79.68359375 C-75 78 -75 78 -74.76000309 76.10042191 C-73.8859916 73.68491477 -72.88593028 72.51595094 -71.07041931 70.70965576 C-70.44639725 70.0815097 -69.82237518 69.45336365 -69.17944336 68.80618286 C-68.1469043 67.78982254 -68.1469043 67.78982254 -67.09350586 66.75292969 C-66.37159561 66.03058136 -65.64968536 65.30823303 -64.90589905 64.56399536 C-62.51592217 62.17610992 -60.11549153 59.79902831 -57.71484375 57.421875 C-56.05652219 55.7691481 -54.39886136 54.11575798 -52.74183655 52.46173096 C-48.37706095 48.10841424 -44.00335136 43.76418126 -39.62774658 39.42175293 C-35.1650403 34.98972478 -30.71080576 30.5492007 -26.25585938 26.109375 C-17.5121961 17.39789433 -8.75907506 8.6959826 0 0 Z " fill="#013364" transform="translate(252,70)"/>
<path d="M0 0 C5.39162994 0.61356996 10.247515 1.87779321 15.390625 3.58203125 C16.17588562 3.83748215 16.96114624 4.09293304 17.77020264 4.35612488 C19.42499465 4.89560826 21.07889381 5.43783727 22.73193359 5.98266602 C25.22694913 6.80490354 27.72448933 7.61903437 30.22265625 8.43164062 C34.14667063 9.71131914 38.06389999 11.01006891 41.97680664 12.32330322 C43.73907562 12.91272871 45.50498318 13.49125346 47.27148438 14.06787109 C60.65477655 18.61922644 69.15754125 26.62947424 78.8125 36.5625 C80.02444022 37.79455541 81.23732521 39.0256822 82.45117188 40.25585938 C84.67751722 42.51459236 86.89827191 44.77850929 89.11254883 47.04907227 C92.96700557 50.99576503 96.80403168 54.91312385 101 58.5 C104.13453994 61.21699334 107.10450395 64.0262473 110 67 C111.66527918 68.668053 113.33210675 70.33456082 115 72 C130.33333333 87.33333333 145.66666667 102.66666667 161 118 C160.05335022 119.11325656 159.10542931 120.2254323 158.15698242 121.3371582 C157.62924728 121.95661819 157.10151215 122.57607819 156.55778503 123.21430969 C152.75252514 127.57628234 148.47424282 131.43533622 144.1875 135.3125 C140.00254941 139.11816542 135.94835467 143.01028743 131.98510742 147.0480957 C130.13725947 148.86503635 128.23760918 150.55438642 126.265625 152.234375 C121.97284763 155.96455487 117.9805381 159.94171702 114 164 C110.11498237 167.96089688 106.2324413 171.85394587 102.0234375 175.47265625 C96.87601315 179.90397193 92.20071063 184.78465829 87.47265625 189.65429688 C86.79332031 190.34458984 86.11398437 191.03488281 85.4140625 191.74609375 C84.50068115 192.68473267 84.50068115 192.68473267 83.56884766 193.64233398 C82 195 82 195 80 195 C79.7628125 195.57492188 79.525625 196.14984375 79.28125 196.7421875 C77.72216345 199.48960222 75.89692649 201.06940798 73.5 203.125 C68.92525678 207.11882345 64.69003022 211.32622016 60.51953125 215.73828125 C55.22181605 220.49390466 49.57902674 222.67499178 42.875 224.625 C33.38909689 227.49244857 24.03535921 230.70835543 14.68792725 233.9932251 C12.84752257 234.63993049 11.00581273 235.28291787 9.1640625 235.92578125 C8.09623535 236.30130127 7.0284082 236.67682129 5.92822266 237.0637207 C3.28919001 237.90753346 0.72612221 238.52256668 -2 239 C1.09669229 235.10701541 4.05235066 232.05942824 8 229 C10.64407254 226.48813108 13.02560922 223.96816151 15.3125 221.125 C17.14357981 218.88933477 19.04819175 217.05235234 21.26953125 215.20703125 C25.31205685 211.71134074 29.07794282 207.98622155 32.8359375 204.19140625 C33.44557846 203.57622131 34.05521942 202.96103638 34.68333435 202.32720947 C37.23475393 199.74815749 39.78230804 197.16535451 42.32568359 194.57836914 C44.19979838 192.67424016 46.07993322 190.77622603 47.9609375 188.87890625 C48.82650772 187.99314659 48.82650772 187.99314659 49.70956421 187.0894928 C51.10221271 185.68804268 52.54665957 184.33840722 54 183 C54.66 183 55.32 183 56 183 C56.226875 182.443125 56.45375 181.88625 56.6875 181.3125 C59.44769928 176.44929174 64.17926052 172.90144075 68.3046875 169.19921875 C73.31042358 164.65625961 78.12308761 159.94387887 82.8828125 155.14453125 C83.55600525 154.46582977 84.229198 153.7871283 84.92279053 153.08786011 C87.70704603 150.27592672 90.48733729 147.46013529 93.26367188 144.64038086 C95.31993473 142.55414264 97.38219519 140.47398786 99.4453125 138.39453125 C100.07543243 137.75095169 100.70555237 137.10737213 101.35476685 136.44429016 C102.86566369 134.92461831 104.42822338 133.45661596 106 132 C106.66 132 107.32 132 108 132 C108.33 131.01 108.66 130.02 109 129 C110.77734375 127.24609375 110.77734375 127.24609375 112.9375 125.4375 C115.03343963 123.66869432 117.05994888 121.94005112 119 120 C118.91815176 116.52729605 118.17896972 115.19298159 115.8046875 112.6328125 C114.35449219 111.39144531 114.35449219 111.39144531 112.875 110.125 C111.78479371 109.17004297 110.69771092 108.21151182 109.61328125 107.25 C109.03143066 106.734375 108.44958008 106.21875 107.85009766 105.6875 C104.47780319 102.61158296 101.27582181 99.36533119 98.0625 96.125 C97.43649902 95.49480957 96.81049805 94.86461914 96.16552734 94.21533203 C93.56367206 91.59251095 90.96604486 88.96559078 88.37109375 86.3359375 C85.97678693 83.97713111 83.50699867 81.73839167 81 79.5 C73.92530789 73.11010478 67.25523323 66.31053805 60.5625 59.52539062 C56.1718101 55.09197694 51.73341283 50.82933077 46.99658203 46.76953125 C43.09848408 43.31472397 39.4742112 39.57661249 35.8125 35.875 C35.03197266 35.08996094 34.25144531 34.30492187 33.44726562 33.49609375 C30.39475701 30.42546167 27.34637058 27.35088845 24.3046875 24.26953125 C21.70420117 21.70871336 19.02003211 19.259762 16.3125 16.8125 C10.71269034 11.71523736 5.15955477 6.54766287 0 1 C0 0.67 0 0.34 0 0 Z " fill="#047CBE" transform="translate(263,28)"/>
<path d="M0 0 C3.78861388 1.72496141 5.45742349 3.68694576 8 7 C10.71490898 9.86166082 13.53960555 12.47446212 16.5625 15 C19.44227883 17.43195146 21.69657391 20.00554608 24 23 C27.24470966 26.42009937 30.69907225 29.47764713 34.29296875 32.515625 C36.64744011 34.5629914 38.82592878 36.76381245 41 39 C41.66 39.66 42.32 40.32 43 41 C42.82185697 43.6944134 42.16384217 44.82553843 40.3125 46.796875 C39.1678125 47.76367188 39.1678125 47.76367188 38 48.75 C32.98741564 53.11065865 28.0974015 57.58108434 23.25 62.125 C22.52941406 62.79370117 21.80882812 63.46240234 21.06640625 64.15136719 C20.36902344 64.80524414 19.67164063 65.45912109 18.953125 66.1328125 C18.33598633 66.70918457 17.71884766 67.28555664 17.08300781 67.87939453 C15.04172931 69.84668496 15.04172931 69.84668496 13.77911568 71.71362972 C11.03225601 75.43280136 9.76722167 76.84229442 5.08950806 77.80381775 C3.59526538 77.80634319 2.1006318 77.77033199 0.60791016 77.70288086 C-0.21226593 77.69414948 -1.03244202 77.68541809 -1.87747192 77.67642212 C-4.5737311 77.63941816 -7.26588909 77.55247416 -9.9609375 77.46484375 C-11.83560686 77.42932954 -13.71033799 77.39694901 -15.58511353 77.36756897 C-20.50820395 77.28202132 -25.42930293 77.15402535 -30.35119629 77.01708984 C-35.37815158 76.88477484 -40.40582752 76.79272844 -45.43359375 76.69726562 C-55.29018222 76.50419278 -65.14513587 76.26625603 -75 76 C-70.85881237 71.06194816 -66.55359152 66.41372702 -61.98486328 61.87133789 C-60.97405449 60.86031006 -60.97405449 60.86031006 -59.94282532 59.82885742 C-57.7376857 57.62440874 -55.52903641 55.42351316 -53.3203125 53.22265625 C-51.78167206 51.6858829 -50.24325375 50.14888712 -48.70504761 48.61167908 C-44.67298834 44.58342204 -40.63793405 40.5581783 -36.60223389 36.53356934 C-32.47778978 32.41938884 -28.35620569 28.30234535 -24.234375 24.18554688 C-16.15903561 16.12090432 -8.08052706 8.05944443 0 0 Z " fill="#027CBE" transform="translate(252,70)"/>
<path d="M0 0 C0.88218201 0.00565979 1.76436401 0.01131958 2.67327881 0.01715088 C5.48586713 0.03950909 8.29717295 0.08970368 11.109375 0.140625 C13.01821074 0.16069075 14.92706649 0.17894139 16.8359375 0.1953125 C21.51090945 0.239372 26.18492492 0.30839516 30.859375 0.390625 C29.91272522 1.50388156 28.96480431 2.6160573 28.01635742 3.7277832 C27.22475471 4.65697319 27.22475471 4.65697319 26.41716003 5.60493469 C22.61190014 9.96690734 18.33361782 13.82596122 14.046875 17.703125 C9.86192441 21.50879042 5.80772967 25.40091243 1.84448242 29.4387207 C-0.00336553 31.25566135 -1.90301582 32.94501142 -3.875 34.625 C-8.16777737 38.35517987 -12.1600869 42.33234202 -16.140625 46.390625 C-20.02564263 50.35152188 -23.9081837 54.24457087 -28.1171875 57.86328125 C-33.26461185 62.29459693 -37.93991437 67.17528329 -42.66796875 72.04492188 C-43.34730469 72.73521484 -44.02664063 73.42550781 -44.7265625 74.13671875 C-45.63994385 75.07535767 -45.63994385 75.07535767 -46.57177734 76.03295898 C-48.140625 77.390625 -48.140625 77.390625 -50.140625 77.390625 C-50.3778125 77.96554688 -50.615 78.54046875 -50.859375 79.1328125 C-52.41846155 81.88022722 -54.24369851 83.46003298 -56.640625 85.515625 C-61.21536822 89.50944845 -65.45059478 93.71684516 -69.62109375 98.12890625 C-74.91880895 102.88452966 -80.56159826 105.06561678 -87.265625 107.015625 C-96.75152811 109.88307357 -106.10526579 113.09898043 -115.45269775 116.3838501 C-117.29310243 117.03055549 -119.13481227 117.67354287 -120.9765625 118.31640625 C-122.04438965 118.69192627 -123.1122168 119.06744629 -124.21240234 119.4543457 C-126.85143499 120.29815846 -129.41450279 120.91319168 -132.140625 121.390625 C-129.04393271 117.49764041 -126.08827434 114.45005324 -122.140625 111.390625 C-119.49655246 108.87875608 -117.11501578 106.35878651 -114.828125 103.515625 C-112.99704519 101.27995977 -111.09243325 99.44297734 -108.87109375 97.59765625 C-104.82856815 94.10196574 -101.06268218 90.37684655 -97.3046875 86.58203125 C-96.69504654 85.96684631 -96.08540558 85.35166138 -95.45729065 84.71783447 C-92.90587107 82.13878249 -90.35831696 79.55597951 -87.81494141 76.96899414 C-85.94082662 75.06486516 -84.06069178 73.16685103 -82.1796875 71.26953125 C-81.60264069 70.67902481 -81.02559387 70.08851837 -80.43106079 69.4801178 C-79.03841229 68.07866768 -77.59396543 66.72903222 -76.140625 65.390625 C-75.480625 65.390625 -74.820625 65.390625 -74.140625 65.390625 C-73.91375 64.83375 -73.686875 64.276875 -73.453125 63.703125 C-70.69292572 58.83991674 -65.96136448 55.29206575 -61.8359375 51.58984375 C-56.83020142 47.04688461 -52.01753739 42.33450387 -47.2578125 37.53515625 C-46.58461975 36.85645477 -45.911427 36.1777533 -45.21783447 35.47848511 C-42.43357897 32.66655172 -39.65328771 29.85076029 -36.87695312 27.03100586 C-34.82069027 24.94476764 -32.75842981 22.86461286 -30.6953125 20.78515625 C-30.06519257 20.14157669 -29.43507263 19.49799713 -28.78585815 18.83491516 C-27.27496131 17.31524331 -25.71240162 15.84724096 -24.140625 14.390625 C-23.480625 14.390625 -22.820625 14.390625 -22.140625 14.390625 C-21.810625 13.400625 -21.480625 12.410625 -21.140625 11.390625 C-19.43359375 9.70703125 -19.43359375 9.70703125 -17.328125 7.953125 C-14.2193677 5.35435337 -14.2193677 5.35435337 -11.58032227 2.30151367 C-7.89864864 -0.58215084 -4.54592293 -0.10985668 0 0 Z " fill="#023364" transform="translate(393.140625,145.609375)"/>
<path d="M0 0 C0.33 0.66 0.66 1.32 1 2 C4.02934491 2.65772428 4.02934491 2.65772428 7 3 C7 3.33 7 3.66 7 4 C4.36 4.33 1.72 4.66 -1 5 C25.07 5.33 51.14 5.66 78 6 C77.67 6.66 77.34 7.32 77 8 C35.915 7.505 35.915 7.505 -6 7 C-4.02 4.69 -2.04 2.38 0 0 Z " fill="#1F7AB8" transform="translate(183,139)"/>
<path d="M0 0 C0.66 0.33 1.32 0.66 2 1 C-5.26 8.26 -12.52 15.52 -20 23 C-20.33 22.01 -20.66 21.02 -21 20 C-18.54976242 17.49195282 -16.08852402 14.9949924 -13.625 12.5 C-12.57699219 11.42685547 -12.57699219 11.42685547 -11.5078125 10.33203125 C-10.8375 9.65527344 -10.1671875 8.97851562 -9.4765625 8.28125 C-8.85861816 7.65283203 -8.24067383 7.02441406 -7.60400391 6.37695312 C-6 5 -6 5 -4 5 C-3.67 4.01 -3.34 3.02 -3 2 C-2.01 1.34 -1.02 0.68 0 0 Z " fill="#1F3F70" transform="translate(375,155)"/>
<path d="M0 0 C3.21524305 1.40844718 5.32183868 3.10344786 7.75 5.625 C8.67039062 6.57246094 8.67039062 6.57246094 9.609375 7.5390625 C10.29773438 8.26222656 10.29773438 8.26222656 11 9 C10.67 9.66 10.34 10.32 10 11 C9.01 11 8.02 11 7 11 C6.67 11.66 6.34 12.32 6 13 C5.34 12.67 4.68 12.34 4 12 C4 10.68 4 9.36 4 8 C3.77242269 5.83700789 3.77242269 5.83700789 3 4 C2.01 3.67 1.02 3.34 0 3 C0 2.01 0 1.02 0 0 Z " fill="#1781BE" transform="translate(377,101)"/>
<path d="M0 0 C0 0.99 0 1.98 0 3 C-0.66 3 -1.32 3 -2 3 C-2.66 4.32 -3.32 5.64 -4 7 C-4.66 7 -5.32 7 -6 7 C-6.20625 7.53625 -6.4125 8.0725 -6.625 8.625 C-8.57996944 12.0017654 -11.18223695 14.30474839 -14 17 C-14.99 16.67 -15.98 16.34 -17 16 C-15.21427748 14.16052663 -13.42197551 12.32842259 -11.625 10.5 C-11.11710937 9.97535156 -10.60921875 9.45070312 -10.0859375 8.91015625 C-8.76167396 7.56846819 -7.38394135 6.28004185 -6 5 C-5.34 5 -4.68 5 -4 5 C-3.71125 4.360625 -3.4225 3.72125 -3.125 3.0625 C-2 1 -2 1 0 0 Z " fill="#204172" transform="translate(323,206)"/>
<path d="M0 0 C2.0625 0.6875 2.0625 0.6875 4 2 C4.9375 3.9375 4.9375 3.9375 5 6 C4.01 6.99 3.02 7.98 2 9 C-0.31 6.69 -2.62 4.38 -5 2 C-4.01 1.67 -3.02 1.34 -2 1 C-1.34 0.67 -0.68 0.34 0 0 Z " fill="#147EBD" transform="translate(335,92)"/>
<path d="M0 0 C3.23087421 0.55704728 5.02361137 1.33187535 7 4 C7 5.32 7 6.64 7 8 C6.34 8 5.68 8 5 8 C0 2.52380952 0 2.52380952 0 0 Z " fill="#157EBE" transform="translate(324,50)"/>
<path d="M0 0 C2.31 0.33 4.62 0.66 7 1 C7.625 2.875 7.625 2.875 8 5 C7.34 5.66 6.68 6.32 6 7 C4.02 4.69 2.04 2.38 0 0 Z " fill="#137FBE" transform="translate(263,28)"/>
<path d="M0 0 C0.99 0.33 1.98 0.66 3 1 C0.36 3.64 -2.28 6.28 -5 9 C-5.33 8.01 -5.66 7.02 -6 6 C-4.02 4.02 -2.04 2.04 0 0 Z " fill="#173C6A" transform="translate(360,169)"/>
<path d="M0 0 C0.99 0.33 1.98 0.66 3 1 C1.02 2.98 -0.96 4.96 -3 7 C-3.99 6.67 -4.98 6.34 -6 6 C-4.02 4.02 -2.04 2.04 0 0 Z " fill="#123A6A" transform="translate(304,224)"/>
<path d="M0 0 C2.475 0.495 2.475 0.495 5 1 C5 2.98 5 4.96 5 7 C1.18461538 4.53846154 1.18461538 4.53846154 0.25 1.8125 C0.1675 1.214375 0.085 0.61625 0 0 Z " fill="#1783C0" transform="translate(341,102)"/>
<path d="M0 0 C0.66 0.33 1.32 0.66 2 1 C0.74464015 4.76607955 -0.52883585 5.26441793 -4 7 C-4.99 7 -5.98 7 -7 7 C-4.69 4.69 -2.38 2.38 0 0 Z " fill="#1A80BC" transform="translate(208,114)"/>
</svg>
